<svg width="22" height="5" viewBox="0 0 22 5" fill="none" xmlns="http://www.w3.org/2000/svg">
<path d="M2.44444 0C1.1 0 0 1.125 0 2.5C0 3.875 1.1 5 2.44444 5C3.78889 5 4.88889 3.875 4.88889 2.5C4.88889 1.125 3.78889 0 2.44444 0ZM19.5556 0C18.2111 0 17.1111 1.125 17.1111 2.5C17.1111 3.875 18.2111 5 19.5556 5C20.9 5 22 3.875 22 2.5C22 1.125 20.9 0 19.5556 0ZM11 0C9.65556 0 8.55556 1.125 8.55556 2.5C8.55556 3.875 9.65556 5 11 5C12.3444 5 13.4444 3.875 13.4444 2.5C13.4444 1.125 12.3444 0 11 0Z" fill="black"/>
</svg>
