<svg width="12" height="12" viewBox="0 0 12 12" fill="none" xmlns="http://www.w3.org/2000/svg">
<path d="M6.06 10.1689L6 10.2343L5.934 10.1689C3.084 7.35041 1.2 5.48665 1.2 3.59673C1.2 2.28883 2.1 1.3079 3.3 1.3079C4.224 1.3079 5.124 1.96185 5.442 2.85123H6.558C6.876 1.96185 7.776 1.3079 8.7 1.3079C9.9 1.3079 10.8 2.28883 10.8 3.59673C10.8 5.48665 8.916 7.35041 6.06 10.1689ZM8.7 0C7.656 0 6.654 0.5297 6 1.36022C5.346 0.5297 4.344 0 3.3 0C1.452 0 0 1.57602 0 3.59673C0 6.06213 2.04 8.08283 5.13 11.1368L6 12L6.87 11.1368C9.96 8.08283 12 6.06213 12 3.59673C12 1.57602 10.548 0 8.7 0Z" fill="white"/>
</svg>
