<svg width="18" height="18" viewBox="0 0 18 18" fill="none" xmlns="http://www.w3.org/2000/svg">
<path d="M12.5568 11.5476L12.1018 12.0273C12.1018 12.0273 11.0188 13.1666 8.0638 10.0557C5.10882 6.94486 6.19181 5.80555 6.19181 5.80555L6.47781 5.50273C7.18481 4.75943 7.25181 3.56507 6.63481 2.69259L5.37482 0.910574C4.61082 -0.169435 3.13584 -0.312377 2.26084 0.608807L0.690852 2.26058C0.257854 2.718 -0.0321438 3.30883 0.00285598 3.9653C0.0928554 5.64567 0.81085 9.25947 4.81482 13.4757C9.0618 17.9461 13.0468 18.124 14.6758 17.9631C15.1918 17.9122 15.6398 17.6348 16.0007 17.2536L17.4207 15.7586C18.3807 14.7495 18.1107 13.0183 16.8827 12.3121L14.9728 11.212C14.1668 10.7482 13.1868 10.8848 12.5568 11.5476Z" fill="#FF9A62"/>
</svg>
